<svg width="161" height="295" viewBox="0 0 161 295" fill="none" xmlns="http://www.w3.org/2000/svg">
<mask id="mask0" style="mask-type:alpha" maskUnits="userSpaceOnUse" x="0" y="0" width="161" height="295">
<rect width="161" height="295" fill="#C4C4C4"/>
</mask>
<g mask="url(#mask0)">
<path d="M59.5333 54.9602C59.5333 54.9602 58.7569 67.9597 57.4069 77.2027C56.5467 83.0917 57.8922 86.7827 55.8118 92.3587C53.974 97.2847 51.9205 99.6832 48.4405 103.624C42.754 110.065 37.1779 111.099 30.9931 117.063C26.3205 121.568 22.8609 123.334 19.8944 129.107C17.6635 133.449 16.6118 136.143 16.005 140.987C15.4596 145.341 14.8454 148.162 16.5393 152.21C17.5946 154.732 19.2818 159.174 21.0465 161.262C31.973 174.188 52.0147 168.876 65.6964 172.724C70.0497 173.948 73.4563 177.056 75.4466 180.546C77.9264 184.893 78.9294 187.263 78.6436 192.957C78.3578 198.65 74.0176 209.014 68.7757 216.347C63.5338 223.68 63.1654 225.77 62.5515 229.251C62.2642 230.881 63.7161 234.493 64.3949 236.241C64.3949 236.241 66.4835 230.771 68.6548 229.25C71.5218 227.243 73.4017 226.578 76.7647 226.013C81.1305 225.28 83.1327 225.159 86.9234 227.445C90.6017 229.664 92.81 231.77 94.0521 235.882C95.4188 240.407 95.2624 243.64 93.3577 247.966C91.8118 251.477 90.3428 253.563 87.0098 255.463C83.1376 257.67 80.0298 257.589 75.6637 256.693C73.2499 256.198 69.1079 254.305 69.1079 254.305C69.1079 254.305 69.6675 259.427 71.1996 261.651C72.7858 263.953 75.0684 265.072 77.5494 266.36C81.6391 268.484 83.9694 267.899 88.5273 267.219C93.541 266.47 97.3123 263.426 102.29 262.465C106.071 261.735 107.698 260.716 111.547 260.866C115.962 261.038 122.689 262.83 122.689 262.83L123.755 273.07C123.755 273.07 120.071 271.716 117.611 271.269L117.596 271.266C114.454 270.695 112.568 270.352 109.418 270.902C104.21 271.81 102.824 272.489 97.9907 274.631C93.305 276.708 90.6998 277.295 87.7916 277.5C81.903 277.916 79.4765 277.829 75.1342 275.987C70.7276 274.117 67.8425 272.547 64.8518 269.148C62.1188 266.041 60.6081 262.841 60.5901 258.703C60.578 255.942 61.367 250.224 61.367 250.224C61.367 250.224 59.1139 248.75 55.6723 243.835C52.7154 239.612 51.1261 235.327 51.6149 230.195C52.1755 224.309 54.3229 222.09 57.5523 216.882C59.5589 213.645 64.4645 207.596 66.0697 201.151C67.1459 196.83 68.3304 193.884 66.6414 189.764C65.058 185.901 60.0862 182.146 57.9971 181.778C55.908 181.409 50.2201 181.124 44.6435 180.141C36.7522 178.75 31.6833 179.576 24.5716 175.884C20.0226 173.523 17.4401 171.849 14.1251 167.94C10.553 163.727 9.3643 160.601 7.73306 155.324C5.66565 148.637 5.02418 144.363 6.21462 137.465C7.27418 131.326 8.87051 127.895 12.3974 122.759C15.5415 118.181 18.2138 116.294 22.4314 112.681C27.6213 108.235 31.5764 107.09 36.7663 102.643C40.9839 99.0298 44.69 97.7023 46.8003 92.565C48.5963 88.1927 47.8421 85.1952 47.4947 80.4812C47.063 74.623 47.3584 72.1927 46.7551 66.3496C46.2095 61.066 47.1627 53.8563 47.1627 53.8563C47.1627 53.8563 42.8688 43.3484 39.7049 37.1042C36.5089 30.7966 34.8858 24.0311 37.3261 18.0165C39.6718 12.235 39.5473 12.014 44.7387 8.55312C49.6263 5.29477 53.5282 4.33588 59.3614 5.02806C65.0873 5.7075 67.2255 7.20057 71.1593 11.4162C76.2146 16.8336 76.7484 20.3936 76.5279 27.8C76.3373 34.2022 72.4369 41.0046 68.6253 46.1521C65.4777 50.4029 59.5333 54.9602 59.5333 54.9602Z" fill="#44CEE1"/>
<path d="M70.2536 243.736C70.2536 243.736 73.8939 247.856 78.4885 246.78C80.9601 246.202 82.7869 245.374 83.8129 243.052C84.8717 240.656 84.9172 237.998 82.8287 236.416C79.8531 234.163 77.4194 234.989 75.0459 235.762C71.8897 236.79 70.2536 243.736 70.2536 243.736ZM70.2536 243.736C70.2536 243.736 65.6199 239.397 64.3949 236.241M61.367 250.224C61.367 250.224 59.1139 248.75 55.6723 243.835C52.7154 239.612 51.1261 235.327 51.6149 230.195C52.1755 224.309 54.3229 222.09 57.5523 216.882C59.5589 213.645 64.4645 207.596 66.0697 201.151C67.1459 196.83 68.3304 193.884 66.6414 189.764C65.058 185.901 60.0862 182.146 57.9971 181.778C55.908 181.409 50.2201 181.124 44.6435 180.141C36.7522 178.75 31.6833 179.576 24.5716 175.884C20.0226 173.523 17.4401 171.849 14.1251 167.94C10.553 163.728 9.3643 160.601 7.73306 155.324C5.66565 148.637 5.02419 144.363 6.21462 137.465C7.27418 131.326 8.87051 127.895 12.3974 122.759C15.5415 118.181 18.2138 116.294 22.4314 112.681C27.6213 108.235 31.5764 107.09 36.7663 102.643C40.9839 99.0298 44.69 97.7023 46.8003 92.565C48.5963 88.1927 47.8421 85.1952 47.4947 80.4812C47.063 74.623 47.3584 72.1927 46.7551 66.3496C46.2095 61.066 47.1627 53.8563 47.1627 53.8563C47.1627 53.8563 42.8688 43.3484 39.7049 37.1042C36.5089 30.7966 34.8858 24.0311 37.3261 18.0165C39.6718 12.235 39.5473 12.014 44.7387 8.55312C49.6263 5.29477 53.5282 4.33588 59.3614 5.02806C65.0873 5.7075 67.2255 7.20057 71.1593 11.4162C76.2146 16.8336 76.7484 20.3936 76.5279 27.8C76.3373 34.2022 72.4369 41.0046 68.6253 46.1521C65.4777 50.4029 59.5333 54.9602 59.5333 54.9602C59.5333 54.9602 58.7569 67.9597 57.4069 77.2027C56.5467 83.0917 57.8922 86.7827 55.8118 92.3587C53.974 97.2847 51.9205 99.6832 48.4405 103.624C42.754 110.065 37.1779 111.099 30.9931 117.063C26.3205 121.568 22.8609 123.334 19.8944 129.107C17.6635 133.449 16.6118 136.143 16.005 140.987C15.4596 145.341 14.8454 148.162 16.5393 152.21C17.5946 154.732 19.2818 159.174 21.0465 161.262C31.973 174.188 52.0147 168.876 65.6964 172.724C70.0497 173.948 73.4563 177.056 75.4466 180.546C77.9264 184.893 78.9294 187.263 78.6436 192.957C78.3578 198.65 74.0176 209.014 68.7757 216.347C63.5338 223.68 63.1654 225.77 62.5515 229.251C62.2642 230.881 63.7161 234.493 64.3949 236.241M61.367 250.224C61.367 250.224 60.578 255.942 60.5901 258.703C60.6081 262.841 62.1188 266.041 64.8518 269.148C67.8425 272.547 70.7276 274.117 75.1342 275.987C79.4765 277.829 81.903 277.916 87.7916 277.5C90.6999 277.295 93.305 276.708 97.9907 274.631C102.824 272.489 104.21 271.81 109.418 270.902C112.573 270.351 114.46 270.696 117.611 271.269C120.071 271.716 123.755 273.07 123.755 273.07L122.689 262.83C122.689 262.83 115.962 261.038 111.547 260.866C107.698 260.716 106.071 261.735 102.29 262.465C97.3123 263.426 93.541 266.47 88.5273 267.219C83.9694 267.899 81.6391 268.484 77.5494 266.36C75.0684 265.072 72.7858 263.953 71.1996 261.651C69.6675 259.427 69.1079 254.305 69.1079 254.305M61.367 250.224L69.1079 254.305M64.3949 236.241C64.3949 236.241 66.4835 230.771 68.6548 229.25C71.5218 227.243 73.4017 226.578 76.7647 226.013C81.1305 225.28 83.1327 225.159 86.9234 227.445C90.6017 229.664 92.81 231.77 94.0521 235.882C95.4188 240.407 95.2624 243.64 93.3577 247.966C91.8118 251.477 90.3428 253.563 87.0098 255.463C83.1376 257.67 80.0298 257.589 75.6637 256.693C73.2499 256.198 69.1079 254.305 69.1079 254.305M55.5984 45.8532C55.5984 45.8532 61.5647 39.902 63.256 34.9974C64.7476 30.6721 65.5166 27.7158 64.2377 23.3229C63.0914 19.3858 62.1222 15.9658 58.2149 14.7219C54.5075 13.5416 51.4504 14.9502 48.7118 17.714C45.8786 20.5733 45.7409 23.6042 45.8876 27.6268C46.055 32.2197 48.1597 34.4883 50.4361 38.4809C52.1769 41.5342 55.5984 45.8532 55.5984 45.8532Z" stroke="black"/>
<path d="M62.4786 37.3731C60.5917 41.1975 55.5984 45.8532 55.5984 45.8532C55.5984 45.8532 51.5686 40.8412 49.5756 37.2523C48.235 34.8381 47.2361 33.5699 46.3796 30.9447C45.6478 28.7017 45.4912 27.0702 45.6823 24.7186C45.8753 22.343 46.001 21.228 47.3608 19.2705C48.8133 17.1796 50.3939 15.6542 52.808 14.8457C54.8108 14.1751 56.2138 14.0465 58.2149 14.722C60.3243 15.434 61.2607 16.5872 62.5984 18.3669C64.7135 21.1807 64.887 23.5326 65.0165 27.0503C65.1694 31.1988 64.3153 33.6502 62.4786 37.3731Z" fill="white" stroke="black"/>
<path d="M130.88 262.323L121.991 261.833L121.829 272.934C121.829 272.934 127.95 275.972 128.834 275.964C129.718 275.955 131.701 273.956 131.701 273.956C131.701 273.956 130.555 278.421 131.128 279.24C131.702 280.059 136.044 281.902 136.044 281.902L138.173 277.969C138.173 277.969 135.334 276.021 135.592 274.283C135.72 273.419 135.986 272.875 136.657 272.317C137.465 271.644 138.36 271.151 139.401 271.006C141.065 270.774 142.057 271.032 143.579 271.742C145.006 272.408 145.747 273.252 146.283 274.732C146.671 275.803 146.885 276.573 146.488 277.64C145.944 279.104 144.756 279.701 143.212 279.935C141.391 280.211 138.87 278.092 138.87 278.092L137.027 282.434C137.027 282.434 139.257 284.293 140.837 285.26C142.552 286.31 143.491 287.134 145.466 287.512C147.275 287.858 148.21 287.613 149.89 286.856C151.919 285.941 152.74 284.828 153.821 282.882C155.17 280.456 155.711 278.816 155.746 276.041C155.78 273.322 155.613 271.519 154.065 269.283C152.659 267.252 151.2 266.608 148.985 265.515C147.234 264.651 146.181 264.099 144.233 263.959C142.491 263.835 141.395 263.883 139.81 264.616C138.204 265.357 138.074 267.006 136.41 267.606C134.83 268.176 133.508 268.497 132.109 267.566C130.359 266.401 130.88 262.323 130.88 262.323Z" fill="#FFD900" stroke="black"/>
<path d="M73.5704 237.141C71.5276 238.926 70.6632 243.45 70.6632 243.45C70.6632 243.45 73.155 245.794 75.1694 246.398C76.6302 246.836 77.5591 246.991 79.0608 246.725C80.9931 246.383 82.3898 245.377 83.5661 243.57C84.47 242.182 84.753 241.45 84.5895 239.802C84.4492 238.387 84.2108 238.13 83.2783 237.057C81.9974 235.584 80.1904 235.005 78.2397 235.092C76.2504 235.181 75.07 235.831 73.5704 237.141Z" fill="white" stroke="black"/>
</g>
</svg>
