<svg width="259" height="290" viewBox="0 0 259 290" fill="none" xmlns="http://www.w3.org/2000/svg">
<path d="M93.1868 56.4345C93.1868 56.4345 96.3866 69.0579 97.9014 78.2753C98.8664 84.148 101.267 87.2577 100.975 93.202C100.716 98.4532 99.4861 101.361 97.3643 106.172C93.8969 114.033 88.8966 116.708 84.81 124.266C81.7227 129.975 78.9609 132.707 77.8837 139.107C77.0735 143.921 76.8877 146.807 77.7774 151.607C78.5772 155.921 78.847 158.796 81.6881 162.141C83.458 164.224 86.4122 167.946 88.7266 169.401C103.057 178.408 120.546 167.271 134.75 166.792C139.27 166.639 143.458 168.569 146.413 171.291C150.093 174.682 151.767 176.637 153.221 182.149C154.674 187.662 153.679 198.854 150.906 207.43C148.133 216.007 148.415 218.11 148.885 221.614C149.105 223.254 151.583 226.256 152.76 227.716C152.76 227.716 153.093 221.87 154.701 219.763C156.825 216.981 158.415 215.778 161.448 214.22C165.386 212.198 167.258 211.476 171.563 212.506C175.741 213.506 178.484 214.843 180.914 218.386C183.587 222.284 184.418 225.412 183.914 230.112C183.505 233.926 182.737 236.36 180.137 239.18C177.116 242.457 174.129 243.322 169.697 243.791C167.247 244.051 162.726 243.502 162.726 243.502C162.726 243.502 164.812 248.214 166.946 249.868C169.155 251.582 171.669 251.956 174.424 252.432C178.965 253.217 181.008 251.953 185.146 249.923C189.697 247.69 192.368 243.646 196.82 241.222C200.202 239.38 201.445 237.916 205.157 236.893C209.417 235.718 216.37 235.388 216.37 235.388L220.49 244.823C220.49 244.823 216.569 244.649 214.089 244.969L214.074 244.971C210.906 245.379 209.006 245.623 206.17 247.102C201.483 249.546 200.367 250.613 196.411 254.119C192.575 257.518 190.27 258.867 187.561 259.944C182.075 262.125 179.736 262.778 175.04 262.338C170.274 261.891 167.049 261.27 163.168 258.937C159.622 256.805 157.213 254.212 155.942 250.275C155.093 247.647 154.112 241.959 154.112 241.959C154.112 241.959 151.518 241.237 146.749 237.596C142.651 234.468 139.838 230.866 138.749 225.828C137.499 220.049 138.873 217.283 140.372 211.341C141.303 207.649 144.145 200.397 143.721 193.769C143.438 189.325 143.673 186.158 140.815 182.744C138.136 179.543 132.26 177.471 130.157 177.753C128.055 178.035 122.548 179.488 116.936 180.241C108.994 181.307 104.414 183.63 96.5176 182.267C91.4668 181.395 88.4984 180.583 84.1545 177.862C79.4739 174.931 77.3935 172.311 74.2399 167.777C70.243 162.031 68.3364 158.153 67.3804 151.219C66.5295 145.047 67.0108 141.293 68.8154 135.33C70.4242 130.014 72.399 127.407 75.3232 122.685C78.9214 116.875 82.3435 114.585 85.9417 108.775C88.8659 104.053 91.9953 101.665 92.4494 96.1297C92.8359 91.4187 91.2087 88.7908 89.449 84.4037C87.2622 78.9518 86.8071 76.5463 84.4613 71.1609C82.3401 66.2911 81.0634 59.1316 81.0634 59.1316C81.0634 59.1316 73.7869 50.4192 68.8794 45.4276C63.9221 40.3853 60.3249 34.4298 60.8276 27.9585C61.3108 21.738 61.1252 21.5652 65.0235 16.6937C68.6937 12.1073 72.1216 10.011 77.8902 8.90277C83.5527 7.81494 86.0428 8.58977 91.0693 11.4149C97.5286 15.0455 99.1163 18.2762 101.151 25.4011C102.909 31.56 101.254 39.2245 99.1817 45.2851C97.4704 50.2899 93.1868 56.4345 93.1868 56.4345Z" fill="#44CEE1"/>
<path d="M160.615 233.083C160.615 233.083 165.332 235.906 169.385 233.488C171.565 232.188 173.055 230.845 173.329 228.322C173.612 225.717 172.85 223.171 170.38 222.296C166.861 221.051 164.793 222.576 162.765 224.032C160.069 225.968 160.615 233.083 160.615 233.083ZM160.615 233.083C160.615 233.083 154.884 230.352 152.76 227.716M154.112 241.959C154.112 241.959 151.518 241.237 146.749 237.596C142.651 234.468 139.838 230.866 138.749 225.828C137.499 220.049 138.873 217.283 140.372 211.341C141.303 207.649 144.145 200.397 143.721 193.769C143.438 189.325 143.673 186.158 140.815 182.744C138.136 179.543 132.26 177.471 130.157 177.753C128.055 178.035 122.548 179.488 116.936 180.241C108.994 181.307 104.414 183.63 96.5176 182.267C91.4668 181.395 88.4984 180.583 84.1545 177.862C79.4739 174.931 77.3935 172.311 74.2399 167.777C70.243 162.031 68.3364 158.153 67.3804 151.219C66.5295 145.047 67.0108 141.293 68.8154 135.33C70.4242 130.014 72.399 127.407 75.3232 122.685C78.9214 116.875 82.3435 114.585 85.9417 108.775C88.8659 104.053 91.9953 101.665 92.4494 96.1297C92.8359 91.4187 91.2087 88.7908 89.449 84.4037C87.2622 78.9518 86.8071 76.5463 84.4613 71.1609C82.3401 66.2911 81.0634 59.1316 81.0634 59.1316C81.0634 59.1316 73.7869 50.4192 68.8794 45.4276C63.9221 40.3853 60.3249 34.4298 60.8276 27.9585C61.3108 21.738 61.1252 21.5652 65.0235 16.6937C68.6937 12.1073 72.1216 10.011 77.8902 8.90277C83.5527 7.81494 86.0428 8.58977 91.0693 11.4149C97.5286 15.0455 99.1163 18.2762 101.151 25.4011C102.909 31.56 101.254 39.2245 99.1817 45.2851C97.4704 50.2899 93.1868 56.4345 93.1868 56.4345C93.1868 56.4345 96.3866 69.0579 97.9014 78.2753C98.8664 84.148 101.267 87.2577 100.975 93.202C100.716 98.4532 99.4861 101.361 97.3643 106.172C93.8969 114.033 88.8966 116.708 84.81 124.266C81.7227 129.975 78.9609 132.707 77.8837 139.107C77.0735 143.921 76.8877 146.807 77.7774 151.607C78.5772 155.921 78.847 158.796 81.6881 162.141C83.458 164.224 86.4122 167.946 88.7266 169.401C103.057 178.408 120.546 167.271 134.75 166.792C139.27 166.639 143.458 168.569 146.413 171.291C150.093 174.682 151.767 176.637 153.221 182.149C154.674 187.662 153.679 198.854 150.906 207.43C148.133 216.007 148.415 218.11 148.885 221.614C149.105 223.254 151.583 226.256 152.76 227.716M154.112 241.959C154.112 241.959 155.093 247.647 155.942 250.275C157.213 254.212 159.622 256.805 163.168 258.937C167.049 261.27 170.274 261.891 175.04 262.338C179.736 262.778 182.075 262.125 187.561 259.944C190.27 258.867 192.575 257.518 196.411 254.119C200.367 250.613 201.483 249.546 206.17 247.102C209.01 245.621 210.913 245.378 214.089 244.969C216.569 244.649 220.49 244.823 220.49 244.823L216.37 235.388C216.37 235.388 209.417 235.718 205.157 236.893C201.445 237.916 200.202 239.38 196.82 241.222C192.368 243.646 189.697 247.69 185.146 249.923C181.008 251.953 178.965 253.217 174.424 252.432C171.669 251.956 169.155 251.582 166.946 249.868C164.812 248.214 162.726 243.502 162.726 243.502M154.112 241.959L162.726 243.502M152.76 227.716C152.76 227.716 153.093 221.87 154.701 219.763C156.825 216.981 158.415 215.778 161.448 214.22C165.387 212.198 167.258 211.476 171.563 212.506C175.741 213.506 178.484 214.843 180.914 218.386C183.587 222.284 184.418 225.412 183.914 230.112C183.505 233.926 182.737 236.36 180.137 239.18C177.116 242.457 174.129 243.321 169.697 243.791C167.247 244.051 162.726 243.502 162.726 243.502M86.6769 48.9483C86.6769 48.9483 90.5591 41.4688 90.6844 36.2823C90.7949 31.7084 90.6318 28.658 88.0817 24.8593C85.7962 21.4549 83.836 18.4894 79.7355 18.4882C75.8447 18.487 73.3583 20.7558 71.5862 24.2196C69.7528 27.8031 70.5401 30.7332 71.899 34.5222C73.4505 38.8483 76.1437 40.3724 79.5231 43.4873C82.1074 45.8694 86.6769 48.9483 86.6769 48.9483Z" stroke="black"/>
<path d="M90.6633 38.7818C90.0243 42.9983 86.6768 48.9483 86.6768 48.9483C86.6768 48.9483 81.3175 45.3933 78.3306 42.5772C76.3214 40.6828 74.9851 39.777 73.3733 37.5348C71.9961 35.6191 71.3525 34.1119 70.8218 31.8129C70.2858 29.4905 70.0676 28.3899 70.7703 26.1123C71.5208 23.6795 72.5647 21.7469 74.6203 20.2448C76.3256 18.9987 77.6237 18.451 79.7354 18.4882C81.9614 18.5274 83.2032 19.3427 85.0174 20.6332C87.8858 22.6736 88.7638 24.8624 89.9535 28.1754C91.3564 32.0825 91.2854 34.6774 90.6633 38.7818Z" fill="white" stroke="black"/>
<path d="M224.022 232.422L215.403 234.649L218.613 245.277C218.613 245.277 225.367 246.317 226.207 246.041C227.047 245.765 228.331 243.259 228.331 243.259C228.331 243.259 228.591 247.862 229.386 248.468C230.181 249.075 234.878 249.515 234.878 249.515L235.715 245.122C235.715 245.122 232.419 244.126 232.138 242.392C231.999 241.53 232.086 240.931 232.557 240.195C233.123 239.309 233.826 238.568 234.774 238.114C236.29 237.389 237.314 237.334 238.979 237.55C240.541 237.752 241.503 238.331 242.462 239.579C243.156 240.482 243.594 241.151 243.539 242.288C243.464 243.849 242.513 244.777 241.112 245.468C239.46 246.283 236.416 245.028 236.416 245.028L235.976 249.724C235.976 249.724 238.664 250.82 240.463 251.263C242.415 251.743 243.561 252.244 245.557 252.006C247.386 251.787 248.203 251.27 249.574 250.04C251.231 248.553 251.675 247.244 252.116 245.061C252.666 242.341 252.684 240.614 251.876 237.959C251.085 235.357 250.379 233.69 248.227 232.028C246.272 230.519 244.686 230.347 242.244 229.977C240.313 229.684 239.142 229.477 237.244 229.934C235.546 230.344 234.516 230.722 233.227 231.9C231.922 233.093 232.297 234.705 230.894 235.781C229.561 236.803 228.398 237.509 226.783 237.046C224.762 236.466 224.022 232.422 224.022 232.422Z" fill="#FFD900" stroke="black"/>
<path d="M161.777 225.793C160.371 228.113 160.918 232.686 160.918 232.686C160.918 232.686 164.003 234.165 166.106 234.13C167.631 234.105 168.563 233.971 169.913 233.262C171.651 232.351 172.677 230.969 173.251 228.891C173.691 227.293 173.739 226.511 173.084 224.989C172.521 223.683 172.216 223.511 171.003 222.771C169.335 221.755 167.438 221.751 165.605 222.425C163.737 223.113 162.809 224.09 161.777 225.793Z" fill="white" stroke="black"/>
</svg>
