<svg width="316" height="190" viewBox="0 0 316 190" fill="none" xmlns="http://www.w3.org/2000/svg">
<path d="M73.5267 41.5005C73.5267 41.5005 83.7297 49.5929 90.5267 56.0005C94.8572 60.083 98.6524 61.098 102.027 66.0005C105.008 70.3314 105.794 73.3894 107.027 78.5005C109.04 86.8527 106.689 92.0137 108.027 100.501C109.037 106.912 108.499 110.759 111.527 116.5C113.804 120.818 115.407 123.225 119.027 126.5C122.28 129.445 124.239 131.566 128.527 132.5C131.198 133.082 135.804 134.249 138.527 134.001C155.383 132.465 162.527 113.001 173.527 104.001C177.027 101.137 181.527 100.129 185.527 100.501C190.51 100.963 193.027 101.501 197.527 105.001C202.027 108.501 208.027 118.001 211.027 126.501C214.027 135.001 215.527 136.501 218.027 139.001C219.197 140.171 222.988 141.053 224.81 141.5C224.81 141.5 221.527 136.651 221.527 134.001C221.527 130.501 222.06 128.579 223.527 125.501C225.43 121.504 226.479 119.794 230.527 118.001C234.454 116.26 237.446 115.659 241.527 117.001C246.017 118.476 248.576 120.459 251.027 124.501C253.016 127.781 253.882 130.181 253.527 134.001C253.113 138.438 251.264 140.938 248.027 144.001C246.237 145.694 242.31 148.001 242.31 148.001C242.31 148.001 246.826 150.48 249.527 150.501C252.322 150.522 254.548 149.294 257.027 148.001C261.112 145.869 261.97 143.624 264.027 139.501C266.29 134.964 265.959 130.129 268.027 125.501C269.597 121.984 269.697 120.067 272.027 117.001C274.7 113.483 280.027 109.001 280.027 109.001L289.027 114.001C289.027 114.001 285.804 116.242 284.027 118.001L284.016 118.011C281.746 120.257 280.383 121.605 279.027 124.501C276.784 129.288 276.544 130.813 275.527 136.001C274.54 141.03 273.527 143.501 272.027 146.001C268.989 151.063 267.527 153.001 263.527 155.501C259.467 158.038 256.527 159.501 252.027 160.001C247.914 160.458 244.426 159.859 241.027 157.501C238.758 155.927 234.527 152.001 234.527 152.001C234.527 152.001 232.027 153.001 226.027 153.001C220.872 153.001 216.45 151.845 212.527 148.501C208.027 144.665 207.441 141.633 205.027 136.001C203.527 132.501 201.385 125.012 197.027 120.001C194.105 116.641 192.37 113.98 188.027 113.001C183.955 112.082 178.027 114.001 176.527 115.501C175.027 117.001 171.531 121.496 167.527 125.501C161.861 131.167 159.63 135.793 152.527 139.501C147.983 141.872 145.13 143.027 140.027 143.501C134.527 144.011 131.284 143.191 126.027 141.501C119.363 139.358 115.494 137.432 110.527 132.5C106.106 128.111 104.21 124.835 102.027 119.001C100.08 113.799 100.067 110.528 99.5267 105C98.8613 98.1988 100.192 94.3022 99.5267 87.5005C98.986 81.9731 100.024 78.1759 97.0267 73.5005C94.4754 69.5214 91.5874 68.4199 87.5267 66.0005C82.4804 62.9939 80.659 61.3579 75.5267 58.5005C70.8858 55.9168 65.5267 51.0006 65.5267 51.0006C65.5267 51.0006 54.4563 48.4906 47.5267 47.5006C40.5267 46.5006 34.0538 43.9495 30.5267 38.5006C27.1363 33.2629 26.8839 33.2381 27.0267 27.0005C27.1611 21.128 28.6138 17.3817 32.5267 13.0005C36.3676 8.69998 38.8171 7.8049 44.5267 7.00061C51.8639 5.96704 55.0863 7.57171 61.0267 12.0006C66.1617 15.829 69.4965 22.9258 71.5267 29.0006C73.2032 34.0172 73.5267 41.5005 73.5267 41.5005Z" fill="#44CEE1"/>
<path d="M234.31 141C234.31 141 239.772 140.381 241.527 136.001C242.471 133.644 242.84 131.673 241.527 129.501C240.171 127.259 238.02 125.697 235.527 126.501C231.974 127.646 231.255 130.113 230.527 132.501C229.558 135.676 234.31 141 234.31 141ZM234.31 141C234.31 141 228.097 142.307 224.81 141.5M234.527 152.001C234.527 152.001 232.027 153.001 226.027 153.001C220.872 153.001 216.45 151.845 212.527 148.501C208.027 144.665 207.441 141.633 205.027 136.001C203.527 132.501 201.385 125.012 197.027 120.001C194.105 116.641 192.37 113.98 188.027 113.001C183.955 112.082 178.027 114.001 176.527 115.501C175.027 117.001 171.531 121.496 167.527 125.501C161.861 131.167 159.63 135.793 152.527 139.501C147.983 141.872 145.13 143.027 140.027 143.501C134.527 144.011 131.284 143.191 126.027 141.501C119.363 139.358 115.494 137.432 110.527 132.5C106.106 128.111 104.21 124.835 102.027 119.001C100.08 113.799 100.067 110.528 99.5267 105C98.8613 98.1988 100.192 94.3022 99.5267 87.5005C98.986 81.9731 100.024 78.1759 97.0267 73.5005C94.4754 69.5214 91.5874 68.4199 87.5267 66.0005C82.4804 62.9939 80.659 61.3579 75.5267 58.5005C70.8858 55.9168 65.5267 51.0006 65.5267 51.0006C65.5267 51.0006 54.4563 48.4906 47.5267 47.5006C40.5267 46.5006 34.0538 43.9495 30.5267 38.5006C27.1363 33.2629 26.8839 33.2381 27.0267 27.0005C27.1611 21.128 28.6138 17.3817 32.5267 13.0005C36.3676 8.69998 38.8171 7.8049 44.5267 7.00061C51.8639 5.96704 55.0863 7.57171 61.0267 12.0006C66.1617 15.829 69.4965 22.9258 71.5267 29.0006C73.2032 34.0172 73.5267 41.5005 73.5267 41.5005C73.5267 41.5005 83.7297 49.5929 90.5267 56.0005C94.8572 60.083 98.6524 61.098 102.027 66.0005C105.008 70.3314 105.794 73.3894 107.027 78.5005C109.04 86.8527 106.689 92.0137 108.027 100.501C109.037 106.912 108.499 110.759 111.527 116.5C113.804 120.818 115.407 123.225 119.027 126.5C122.28 129.445 124.239 131.566 128.527 132.5C131.198 133.082 135.804 134.249 138.527 134.001C155.383 132.465 162.527 113.001 173.527 104.001C177.027 101.137 181.527 100.129 185.527 100.501C190.51 100.963 193.027 101.501 197.527 105.001C202.027 108.501 208.027 118.001 211.027 126.501C214.027 135.001 215.527 136.501 218.027 139.001C219.197 140.171 222.988 141.053 224.81 141.5M234.527 152.001C234.527 152.001 238.758 155.927 241.027 157.501C244.426 159.859 247.914 160.458 252.027 160.001C256.527 159.501 259.467 158.038 263.527 155.501C267.527 153.001 268.989 151.063 272.027 146.001C273.527 143.501 274.54 141.03 275.527 136.001C276.544 130.813 276.784 129.288 279.027 124.501C280.385 121.601 281.75 120.253 284.027 118.001C285.804 116.242 289.027 114.001 289.027 114.001L280.027 109.001C280.027 109.001 274.7 113.483 272.027 117.001C269.697 120.067 269.597 121.984 268.027 125.501C265.959 130.129 266.29 134.964 264.027 139.501C261.97 143.624 261.112 145.869 257.027 148.001C254.548 149.294 252.322 150.522 249.527 150.501C246.826 150.48 242.31 148.001 242.31 148.001M234.527 152.001L242.31 148.001M224.81 141.5C224.81 141.5 221.527 136.651 221.527 134.001C221.527 130.501 222.06 128.579 223.527 125.501C225.43 121.504 226.479 119.794 230.527 118.001C234.454 116.26 237.446 115.659 241.527 117.001C246.017 118.476 248.576 120.459 251.027 124.501C253.016 127.781 253.882 130.181 253.527 134.001C253.113 138.438 251.264 140.938 248.027 144.001C246.237 145.694 242.31 148.001 242.31 148.001M63.8097 39.5C63.8097 39.5 62.3572 31.1992 59.3097 27.0005C56.6222 23.2978 54.6417 20.9721 50.3097 19.5C46.4272 18.1807 43.0698 17.0129 39.8097 19.5C36.7163 21.8599 36.1166 25.172 36.8097 29.0006C37.5268 32.9615 39.9305 34.8128 43.3097 37C47.1679 39.4973 50.2335 39.0745 54.8097 39.5C58.3093 39.8254 63.8097 39.5 63.8097 39.5Z" stroke="black"/>
<path d="M60.8097 29C62.8602 32.7393 63.8097 39.5 63.8097 39.5C63.8097 39.5 57.3927 39.9261 53.3097 39.5C50.5632 39.2134 48.9514 39.3042 46.3097 38.5C44.0526 37.8129 42.6264 37.0054 40.8097 35.5C38.9744 33.9792 38.1332 33.2367 37.3097 31C36.4301 28.6109 36.0872 26.4412 36.8097 24C37.4091 21.9747 38.1085 20.7518 39.8097 19.5C41.6029 18.1805 43.0846 18.075 45.3097 18C48.8278 17.8814 50.8538 19.0884 53.8097 21C57.2956 23.2544 58.8137 25.36 60.8097 29Z" fill="white" stroke="black"/>
<path d="M284.31 102L278.81 109L287.81 115.5C287.81 115.5 293.81 112.229 294.31 111.5C294.81 110.771 294.31 108 294.31 108C294.31 108 297.31 111.5 298.31 111.5C299.31 111.5 303.31 109 303.31 109L301.31 105C301.31 105 298.086 106.209 296.81 105C296.176 104.4 295.882 103.87 295.81 103C295.722 101.952 295.831 100.936 296.31 100C297.075 98.5047 297.855 97.8395 299.31 97.0002C300.673 96.2135 301.79 96.0903 303.31 96.5002C304.409 96.7966 305.163 97.0629 305.81 98.0002C306.697 99.2861 306.504 100.601 305.81 102C304.991 103.65 301.81 104.5 301.81 104.5L304.31 108.5C304.31 108.5 307.111 107.74 308.81 107C310.653 106.198 311.868 105.901 313.31 104.5C314.631 103.217 314.966 102.31 315.31 100.5C315.725 98.3128 315.283 97.0023 314.31 95.0002C313.096 92.5044 312.063 91.1204 309.81 89.5002C307.602 87.9123 306.029 87.015 303.31 87.0002C300.84 86.9867 299.475 87.8126 297.31 89.0002C295.598 89.939 294.541 90.4847 293.31 92.0002C292.208 93.3556 291.62 94.2814 291.31 96.0002C290.996 97.7403 292.272 98.7935 291.81 100.5C291.371 102.121 290.874 103.389 289.31 104C287.351 104.766 284.31 102 284.31 102Z" fill="#FFD900" stroke="black"/>
<path d="M230.81 134.5C231.1 137.197 234.31 140.5 234.31 140.5C234.31 140.5 237.66 139.804 239.31 138.5C240.507 137.555 241.166 136.883 241.81 135.5C242.638 133.721 242.615 132 241.81 130C241.191 128.463 240.754 127.812 239.31 127C238.071 126.304 237.724 126.352 236.31 126.5C234.368 126.704 232.857 127.852 231.81 129.5C230.742 131.181 230.597 132.52 230.81 134.5Z" fill="white" stroke="black"/>
</svg>
